<svg width="61" height="27" viewBox="0 0 61 27" fill="none" xmlns="http://www.w3.org/2000/svg">
<path d="M0.453735 25.7472V0.706514H6.97841C9.64734 0.706514 11.6632 1.25686 13.0261 2.35755C14.4003 3.44677 15.0874 5.03474 15.0874 7.12147C15.0874 8.63491 14.7069 9.89039 13.946 10.8879C13.1851 11.8854 12.1118 12.5217 10.7263 12.7969C12.2935 13.0033 13.5996 13.6912 14.6445 14.8607C15.6893 16.0187 16.2118 17.3487 16.2118 18.8507C16.2118 20.9833 15.5247 22.6687 14.1504 23.907C12.7876 25.1338 10.8853 25.7472 8.44348 25.7472H0.453735ZM1.37366 13.3816V24.8185H8.54569C10.6468 24.8185 12.2935 24.2968 13.486 23.2534C14.6899 22.1986 15.2918 20.7425 15.2918 18.8851C15.2918 17.3028 14.7126 16.0015 13.5542 14.9811C12.3958 13.9492 10.8455 13.416 8.90344 13.3816H1.37366ZM1.37366 12.4529H7.31912C9.57919 12.4529 11.2828 12.0172 12.4298 11.1459C13.5769 10.263 14.1504 8.89862 14.1504 7.05267C14.1504 3.49837 11.8279 1.69255 7.18284 1.63522H1.37366V12.4529Z" fill="white"/>
<path d="M39.0737 15.1015C39.0737 17.2684 38.6875 19.1889 37.9152 20.8629C37.1543 22.5254 36.064 23.8152 34.6444 24.7325C33.2247 25.6383 31.5893 26.0912 29.7381 26.0912C26.9443 26.0912 24.6842 25.0879 22.9579 23.0815C21.2316 21.075 20.3685 18.3691 20.3685 14.9639V11.3522C20.3685 9.19672 20.7489 7.28198 21.5099 5.60802C22.2821 3.93405 23.3781 2.64419 24.7978 1.73841C26.2288 0.821169 27.8642 0.362549 29.704 0.362549C31.5552 0.362549 33.1907 0.821169 34.6103 1.73841C36.0413 2.64419 37.143 3.93979 37.9152 5.62522C38.6875 7.29918 39.0737 9.20819 39.0737 11.3522V15.1015ZM38.1537 11.3178C38.1537 8.29095 37.3928 5.86599 35.871 4.04298C34.3491 2.2085 32.2935 1.29126 29.704 1.29126C27.1487 1.29126 25.1101 2.20276 23.5882 4.02578C22.0664 5.83733 21.3054 8.30815 21.3054 11.4382V15.1015C21.3054 17.0965 21.6461 18.8621 22.3276 20.3985C23.0204 21.9234 24.0028 23.0987 25.2748 23.9242C26.5468 24.7497 28.0345 25.1624 29.7381 25.1624C32.3275 25.1624 34.3775 24.2509 35.888 22.4279C37.3985 20.6049 38.1537 18.1169 38.1537 14.9639V11.3178Z" fill="white"/>
<path d="M51.3734 12.2465L59.3802 0.706514H60.5387L51.9527 12.9689L60.8623 25.7472H59.7209L51.3734 13.6912L42.9919 25.7472H41.8846L50.7942 12.9689L42.2082 0.706514H43.3667L51.3734 12.2465Z" fill="white"/>
</svg>
