<svg width="121" height="27" viewBox="0 0 121 27" fill="none" xmlns="http://www.w3.org/2000/svg">
<path d="M16.0136 21.0865H7.81939L6.38839 25.7644H0L9.09706 0.723712H14.7188L23.884 25.7644H17.4616L16.0136 21.0865ZM9.25038 16.4257H14.5826L11.908 7.74061L9.25038 16.4257Z" fill="#656980"/>
<path d="M45.4001 17.2856C45.3206 19.0284 44.855 20.5705 44.0032 21.912C43.1514 23.242 41.9532 24.2739 40.4087 25.0077C38.8755 25.7415 37.1208 26.1084 35.1446 26.1084C31.8851 26.1084 29.3184 25.0363 27.4445 22.8923C25.5706 20.7482 24.6336 17.7213 24.6336 13.8116V12.5733C24.6336 10.1197 25.0538 7.97565 25.8943 6.14117C26.746 4.29522 27.9669 2.8735 29.5569 1.876C31.1469 0.867031 32.9868 0.362549 35.0765 0.362549C38.0861 0.362549 40.5052 1.16513 42.3337 2.77031C44.1622 4.36401 45.2014 6.56539 45.4512 9.37444H39.4887C39.4433 7.84953 39.0629 6.75457 38.3474 6.08957C37.6319 5.42457 36.5416 5.09207 35.0765 5.09207C33.5887 5.09207 32.4984 5.65388 31.8056 6.7775C31.1129 7.90112 30.7494 9.69548 30.7154 12.1606V13.932C30.7154 16.6034 31.0447 18.5125 31.7034 19.659C32.3735 20.8056 33.5206 21.3788 35.1446 21.3788C36.5189 21.3788 37.5694 21.0521 38.2962 20.3985C39.0231 19.745 39.4092 18.7074 39.4547 17.2856H45.4001Z" fill="#656980"/>
<path d="M67.1888 5.38444H59.7442V25.7644H53.7647V5.38444H46.4563V0.723712H67.1888V5.38444Z" fill="#656980"/>
<path d="M76.0985 25.7644H70.136V0.723712H76.0985V25.7644Z" fill="#656980"/>
<path d="M89.8803 18.9539L94.8207 0.723712H101.499L93.1512 25.7644H86.6095L78.3301 0.723712H84.957L89.8803 18.9539Z" fill="#656980"/>
<path d="M118.705 15.1531H109.301V21.1209H120.408V25.7644H103.322V0.723712H120.442V5.38444H109.301V10.6643H118.705V15.1531Z" fill="#656980"/>
</svg>
